<svg width="48" height="48" viewBox="0 0 48 48" fill="none" xmlns="http://www.w3.org/2000/svg">
<path fill-rule="evenodd" clip-rule="evenodd" d="M24 0C37.2545 0 48 10.7455 48 24C48 37.2545 37.2545 48 24 48C10.7455 48 0 37.2545 0 24C0 10.7455 10.7455 0 24 0ZM28.8153 16.8153C29.2127 16.4038 29.4326 15.8526 29.4277 15.2806C29.4227 14.7085 29.1932 14.1613 28.7887 13.7568C28.3842 13.3522 27.8369 13.1228 27.2649 13.1178C26.6928 13.1128 26.1417 13.3327 25.7302 13.7302L17.0029 22.4575C16.5939 22.8666 16.3641 23.4215 16.3641 24C16.3641 24.5785 16.5939 25.1334 17.0029 25.5425L25.7302 34.2698C26.1417 34.6673 26.6928 34.8872 27.2649 34.8822C27.8369 34.8772 28.3842 34.6478 28.7887 34.2432C29.1932 33.8387 29.4227 33.2915 29.4277 32.7194C29.4326 32.1474 29.2127 31.5962 28.8153 31.1847L21.6305 24L28.8153 16.8153Z" fill="#E3E3E3"/>
</svg>
