<svg width="48" height="48" viewBox="0 0 48 48" fill="none" xmlns="http://www.w3.org/2000/svg">
<path fill-rule="evenodd" clip-rule="evenodd" d="M24 0C10.7455 0 0 10.7455 0 24C0 37.2545 10.7455 48 24 48C37.2545 48 48 37.2545 48 24C48 10.7455 37.2545 0 24 0ZM19.1847 16.8153C18.7873 16.4038 18.5674 15.8526 18.5723 15.2806C18.5773 14.7085 18.8068 14.1613 19.2113 13.7568C19.6158 13.3522 20.1631 13.1228 20.7351 13.1178C21.3072 13.1128 21.8583 13.3327 22.2698 13.7302L30.9971 22.4575C31.4061 22.8666 31.6359 23.4215 31.6359 24C31.6359 24.5785 31.4061 25.1334 30.9971 25.5425L22.2698 34.2698C21.8583 34.6673 21.3072 34.8872 20.7351 34.8822C20.1631 34.8772 19.6158 34.6478 19.2113 34.2432C18.8068 33.8387 18.5773 33.2915 18.5723 32.7194C18.5674 32.1474 18.7873 31.5962 19.1847 31.1847L26.3695 24L19.1847 16.8153Z" fill="#E3E3E3"/>
</svg>
